<?xml version="1.0" encoding="UTF-8"?>
<svg width="66px" height="50px" viewBox="0 0 66 50" version="1.1" xmlns="http://www.w3.org/2000/svg" xmlns:xlink="http://www.w3.org/1999/xlink">
    <title>Artboard Copy</title>
    <g id="Artboard-Copy" stroke="none" stroke-width="1" fill="none" fill-rule="evenodd">
        <path d="M7.37304688,8.55859375 C8.59375,8.55859375 9.59472656,8.13541667 10.3759766,7.2890625 C11.1246745,6.47526042 11.4990234,5.48242188 11.4990234,4.31054688 C11.4990234,3.17122396 11.1246745,2.17838542 10.3759766,1.33203125 C9.59472656,0.469401042 8.59375,0.0380859375 7.37304688,0.0380859375 C6.16861979,0.0380859375 5.17578125,0.469401042 4.39453125,1.33203125 C3.64583333,2.17838542 3.27148438,3.17122396 3.27148438,4.31054688 C3.27148438,5.48242188 3.64583333,6.47526042 4.39453125,7.2890625 C4.75260417,7.6796875 5.18391927,7.98893229 5.68847656,8.21679688 C6.19303385,8.44466146 6.75455729,8.55859375 7.37304688,8.55859375 Z M14.6972656,36 L14.6972656,34.4375 C14.3717448,34.2259115 14.0218099,34.0712891 13.6474609,33.9736328 C13.273112,33.8759766 12.9231771,33.7620443 12.5976562,33.6318359 C11.8164062,33.3225911 11.4257812,32.7447917 11.4257812,31.8984375 L11.4257812,31.8984375 L11.4257812,11.4638672 L0.952148438,11.4638672 L0.952148438,13.1728516 C1.26139323,13.4007161 1.6031901,13.5594076 1.97753906,13.6489258 C2.35188802,13.738444 2.70182292,13.8483073 3.02734375,13.9785156 C3.79231771,14.2552083 4.17480469,14.8330078 4.17480469,15.7119141 L4.17480469,15.7119141 L4.17480469,31.8984375 C4.17480469,32.7447917 3.79231771,33.3225911 3.02734375,33.6318359 C2.70182292,33.7620443 2.35188802,33.8759766 1.97753906,33.9736328 C1.6031901,34.0712891 1.26139323,34.2259115 0.952148438,34.4375 L0.952148438,34.4375 L0.952148438,36 L14.6972656,36 Z M28.8170062,36 L28.8170062,34.3398438 C28.4263812,34.1445312 28.0357562,33.9858398 27.6451312,33.8637695 C27.2545062,33.7416992 26.9045713,33.6074219 26.5953265,33.4609375 C25.8954567,33.1028646 25.5455218,32.484375 25.5455218,31.6054688 L25.5455218,31.6054688 L25.5699359,0.477539062 L15.1207172,0.477539062 L15.1207172,2.16210938 C15.3160297,2.37369792 15.7107237,2.54866536 16.3047992,2.68701172 C16.8988747,2.82535807 17.3423968,2.9921875 17.6353656,3.1875 C18.0748187,3.44791667 18.2945453,4.3186849 18.2945453,5.79980469 L18.2945453,5.79980469 L18.2945453,31.6054688 C18.2945453,32.5820312 17.9039203,33.2412109 17.1226703,33.5830078 C16.7808734,33.7294922 16.4065244,33.8556315 15.9996234,33.9614258 C15.5927224,34.0672201 15.2102354,34.2259115 14.8521625,34.4375 L14.8521625,34.4375 L14.8521625,36 L28.8170062,36 Z M43.7584125,36 L43.7584125,34.4375 C43.4817198,34.1933594 43.2050271,33.9980469 42.9283343,33.8515625 C41.7076312,33.265625 40.6903786,32.2565104 39.8765765,30.8242188 L39.8765765,30.8242188 L33.1382953,19.6181641 L37.5816547,15.7119141 C37.9885557,15.3538411 39.0709125,14.7353516 40.828725,13.8564453 C41.626251,13.4658203 42.025014,13.0833333 42.025014,12.7089844 L42.025014,12.7089844 L42.025014,11.4638672 L30.8189593,11.4638672 L30.8189593,13.1728516 C31.079376,13.3844401 31.3723448,13.5349935 31.6978656,13.6245117 C32.0233864,13.7140299 32.3244932,13.7994792 32.6011859,13.8808594 C32.8778786,13.9622396 33.1098122,14.0721029 33.2969867,14.2104492 C33.4841612,14.3487956 33.5777484,14.5725911 33.5777484,14.8818359 C33.5777484,15.1910807 33.427195,15.5084635 33.1260882,15.8339844 C32.8249815,16.1595052 32.3733213,16.5826823 31.7711078,17.1035156 L31.7711078,17.1035156 L27.7427875,20.6435547 L27.7427875,24.0615234 L30.0377093,27.9189453 C30.3306781,28.4397786 30.8352354,29.3308919 31.5513812,30.5922852 C32.2675271,31.8536784 32.7313942,32.7610677 32.9429828,33.3144531 C32.9429828,33.4609375 32.8331195,33.5667318 32.6133929,33.6318359 C32.3936664,33.6969401 32.0518695,33.7742513 31.5880023,33.8637695 C31.1241351,33.9532878 30.8922015,34.1119792 30.8922015,34.3398438 L30.8922015,34.3398438 L30.9166156,36 L43.7584125,36 Z M65.3244421,23.5976562 C65.3244421,20.000651 64.5757442,17.1279297 63.0783484,14.9794922 C61.4019161,12.554362 58.8872676,11.2197266 55.5344031,10.9755859 L55.5344031,10.9755859 L55.5344031,13.9052734 C56.4133093,14.1982422 57.0114538,14.9510091 57.3288367,16.1635742 C57.6462195,17.3761393 57.8049109,19.0240885 57.8049109,21.1074219 L57.8049109,21.1074219 L52.7511999,21.1074219 L52.7511999,23.5976562 L65.3244421,23.5976562 Z M54.0939734,36.3662109 L54.0939734,33.4365234 C52.7267859,32.7529297 51.7583614,31.5566406 51.1886999,29.8476562 C50.9120072,29.0338542 50.7207637,28.1183268 50.6149695,27.1010742 C50.5091752,26.0838216 50.4562781,24.5457357 50.4562781,22.4868164 C50.4562781,20.4278971 50.6719356,18.5764974 51.1032507,16.9326172 C51.5345658,15.288737 52.2873327,14.2796224 53.3615515,13.9052734 L53.3615515,13.9052734 L53.3615515,10.9755859 C50.1877234,11.2034505 47.5916947,12.5136719 45.5734656,14.90625 C43.5389604,17.2988281 42.5217077,20.2529297 42.5217077,23.7685547 C42.5217077,27.1214193 43.5308223,29.9453125 45.5490515,32.2402344 C47.713765,34.7141927 50.5620723,36.0895182 54.0939734,36.3662109 L54.0939734,36.3662109 Z M56.2668249,36.3662109 C60.9380489,35.9593099 63.8840124,33.5179036 65.1047156,29.0419922 L65.1047156,29.0419922 L62.8586218,28.0166016 C61.7355749,31.4671224 59.5383093,33.273763 56.2668249,33.4365234 L56.2668249,33.4365234 L56.2668249,36.3662109 Z" id="ike" fill="#FFFFFF" fill-rule="nonzero"></path>
        <path d="M5.998,49 L8.28,43.708 L10.562,49 L11.038,49 L15.336,39.06 L14.804,39.06 L10.8,48.426 L8.56,43.246 L10.324,39.144 L9.834,39.144 L8.266,42.812 L6.726,39.144 L6.236,39.144 L8,43.246 L5.774,48.426 L1.756,39.06 L1.238,39.06 L5.522,49 L5.998,49 Z M23.250708,49.07 C23.9040413,49.07 24.5130413,48.9323333 25.077708,48.657 C25.6423747,48.3816667 26.1323747,48.013 26.547708,47.551 C26.9630413,47.089 27.289708,46.5546667 27.527708,45.948 C27.765708,45.3413333 27.884708,44.702 27.884708,44.03 C27.884708,43.414 27.772708,42.805 27.548708,42.203 C27.324708,41.601 27.009708,41.062 26.603708,40.586 C26.197708,40.11 25.7100413,39.725 25.140708,39.431 C24.5713747,39.137 23.9413747,38.99 23.250708,38.99 C22.5880413,38.99 21.9743747,39.1276667 21.409708,39.403 C20.8450413,39.6783333 20.3550413,40.0493333 19.939708,40.516 C19.5243747,40.9826667 19.197708,41.5193333 18.959708,42.126 C18.721708,42.7326667 18.602708,43.3673333 18.602708,44.03 C18.602708,44.6646667 18.714708,45.2853333 18.938708,45.892 C19.162708,46.4986667 19.4800413,47.0353333 19.890708,47.502 C20.3013747,47.9686667 20.7913747,48.3466667 21.360708,48.636 C21.9300413,48.9253333 22.5600413,49.07 23.250708,49.07 Z M23.250708,48.608 C22.6440413,48.608 22.0863747,48.482 21.577708,48.23 C21.0690413,47.978 20.6303747,47.6396667 20.261708,47.215 C19.8930413,46.7903333 19.6060413,46.3026667 19.400708,45.752 C19.1953747,45.2013333 19.092708,44.6273333 19.092708,44.03 C19.092708,43.4606667 19.1930413,42.903 19.393708,42.357 C19.5943747,41.811 19.876708,41.3233333 20.240708,40.894 C20.604708,40.4646667 21.0410413,40.117 21.549708,39.851 C22.0583747,39.585 22.6253747,39.452 23.250708,39.452 C23.838708,39.452 24.3870413,39.578 24.895708,39.83 C25.4043747,40.082 25.8430413,40.4203333 26.211708,40.845 C26.5803747,41.2696667 26.869708,41.7573333 27.079708,42.308 C27.289708,42.8586667 27.394708,43.4326667 27.394708,44.03 C27.394708,44.59 27.296708,45.1453333 27.100708,45.696 C26.904708,46.2466667 26.624708,46.7366667 26.260708,47.166 C25.896708,47.5953333 25.4603747,47.943 24.951708,48.209 C24.4430413,48.475 23.8760413,48.608 23.250708,48.608 Z M33.125416,49 L33.125416,45.164 L36.597416,45.164 L39.061416,49 L39.621416,49 L37.129416,45.108 C37.493416,45.0706667 37.8247493,44.9633333 38.123416,44.786 C38.4220827,44.6086667 38.6787493,44.3846667 38.893416,44.114 C39.1080827,43.8433333 39.2737493,43.5353333 39.390416,43.19 C39.5070827,42.8446667 39.565416,42.4806667 39.565416,42.098 C39.565416,41.7246667 39.495416,41.356 39.355416,40.992 C39.215416,40.628 39.019416,40.3036667 38.767416,40.019 C38.515416,39.7343333 38.214416,39.5033333 37.864416,39.326 C37.514416,39.1486667 37.1340827,39.06 36.723416,39.06 L36.723416,39.06 L32.635416,39.06 L32.635416,49 L33.125416,49 Z M36.807416,44.716 L33.125416,44.716 L33.125416,39.508 L36.709416,39.508 C37.0360827,39.508 37.3440827,39.5803333 37.633416,39.725 C37.9227493,39.8696667 38.1747493,40.061 38.389416,40.299 C38.6040827,40.537 38.774416,40.8123333 38.900416,41.125 C39.026416,41.4376667 39.089416,41.762 39.089416,42.098 C39.089416,42.4246667 39.0357493,42.7466667 38.928416,43.064 C38.8210827,43.3813333 38.669416,43.6613333 38.473416,43.904 C38.277416,44.1466667 38.0370827,44.3426667 37.752416,44.492 C37.4677493,44.6413333 37.1527493,44.716 36.807416,44.716 L36.807416,44.716 Z M44.918124,49 L44.918124,45.92 L47.074124,43.708 L51.218124,49 L51.792124,49 L47.410124,43.414 L51.596124,39.06 L50.994124,39.06 L44.918124,45.318 L44.918124,39.06 L44.428124,39.06 L44.428124,49 L44.918124,49 Z M59.048832,49.07 C59.580832,49.07 60.063832,49.0163333 60.497832,48.909 C60.931832,48.8016667 61.302832,48.6406667 61.610832,48.426 C61.918832,48.2113333 62.1544987,47.9453333 62.317832,47.628 C62.4811653,47.3106667 62.562832,46.942 62.562832,46.522 C62.562832,46.0833333 62.478832,45.7146667 62.310832,45.416 C62.142832,45.1173333 61.904832,44.8676667 61.596832,44.667 C61.288832,44.4663333 60.9154987,44.3006667 60.476832,44.17 C60.0381653,44.0393333 59.5481653,43.918 59.006832,43.806 C58.474832,43.694 58.0174987,43.5843333 57.634832,43.477 C57.2521653,43.3696667 56.9394987,43.2366667 56.696832,43.078 C56.4541653,42.9193333 56.2744987,42.7256667 56.157832,42.497 C56.0411653,42.2683333 55.982832,41.986 55.982832,41.65 C55.982832,40.978 56.220832,40.4413333 56.696832,40.04 C57.172832,39.6386667 57.9381653,39.438 58.992832,39.438 C59.580832,39.438 60.0941653,39.5196667 60.532832,39.683 C60.9714987,39.8463333 61.372832,40.1286667 61.736832,40.53 L61.736832,40.53 L62.002832,40.166 C61.6014987,39.7553333 61.1581653,39.4566667 60.672832,39.27 C60.1874987,39.0833333 59.622832,38.99 58.978832,38.99 C58.4561653,38.99 57.9801653,39.0506667 57.550832,39.172 C57.1214987,39.2933333 56.7551653,39.4683333 56.451832,39.697 C56.1484987,39.9256667 55.912832,40.2103333 55.744832,40.551 C55.576832,40.8916667 55.492832,41.2813333 55.492832,41.72 C55.492832,42.1306667 55.5651653,42.4713333 55.709832,42.742 C55.8544987,43.0126667 56.0691653,43.2413333 56.353832,43.428 C56.6384987,43.6146667 56.9884987,43.7686667 57.403832,43.89 C57.8191653,44.0113333 58.2974987,44.128 58.838832,44.24 C59.3894987,44.352 59.867832,44.471 60.273832,44.597 C60.679832,44.723 61.015832,44.8723333 61.281832,45.045 C61.547832,45.2176667 61.7461653,45.4276667 61.876832,45.675 C62.0074987,45.9223333 62.072832,46.2233333 62.072832,46.578 C62.072832,47.278 61.8044987,47.7983333 61.267832,48.139 C60.7311653,48.4796667 59.9961653,48.65 59.062832,48.65 C58.306832,48.65 57.6301653,48.5286667 57.032832,48.286 C56.4354987,48.0433333 55.9034987,47.684 55.436832,47.208 L55.436832,47.208 L55.142832,47.558 C55.6841653,48.0713333 56.2721653,48.4516667 56.906832,48.699 C57.5414987,48.9463333 58.2554987,49.07 59.048832,49.07 Z" id="WORKS" fill="#FFFFFF" fill-rule="nonzero"></path>
    </g>
</svg>